<svg id="Layer_1" enable-background="new 0 0 512 512" height="512" viewBox="0 0 512 512" width="512" xmlns="http://www.w3.org/2000/svg"><path d="m391.301 135.071c-2.996 0-5.853-1.738-7.135-4.654l-19.204-43.697c-1.728-3.934.062-8.522 4.001-10.249 3.936-1.727 8.532.062 10.261 3.996l19.204 43.698c1.728 3.934-.062 8.522-4.001 10.249-1.019.446-2.081.657-3.126.657z" fill="#595959"/><g clip-rule="evenodd" fill-rule="evenodd"><path d="m63.487 399.424c0 38.157 30.953 69.076 69.152 69.076s69.152-30.919 69.152-69.076l-67.184-19.868z" fill="#838383"/><path d="m350.414 399.424c0 38.157 30.953 69.076 69.152 69.076s69.152-30.919 69.152-69.076l-66.797-25.349z" fill="#838383"/><path d="m385.005 399.424c0 19.064 15.477 34.553 34.561 34.553 19.115 0 34.591-15.489 34.591-34.553l-34.591-14.149z" fill="#ececec"/><path d="m39.303 221.805v93.739l186.672-18.527v-75.212l-93.336-16.294z" fill="#fe636e"/><path d="m39.869 158.567c-50.485-10.664-55.316 63.238-.567 63.238h186.673 7.515c33.488 0 33.488-43.787 0-43.787h-84.927c-10.198 0-8.528 1.728-40.555-5.034z" fill="#9b9b9b"/><path d="m98.048 399.424c0 19.064 15.477 34.553 34.591 34.553 19.085 0 34.561-15.489 34.561-34.553l-34.561-14.149z" fill="#ececec"/><path d="m374.866 172.388v142.56l56.39 18.081 42.195-12.54-20.874-148.101-33.011-19.481z" fill="#fe636e"/><path d="m102.193 415.807h60.892c2.624-4.885 4.115-10.455 4.115-16.383h-69.152c0 5.928 1.491 11.498 4.145 16.383z" fill="#cecece"/><path d="m174.715 421.824c-1.998 17.515-12.524 33.153-24.661 44.472 29.76-7.715 51.738-34.732 51.738-66.872h-34.592c0 5.928-1.491 11.498-4.115 16.383h4.712c4.89 0 7.574.417 6.918 6.017z" fill="#595959"/><path d="m28.687 359.688 110.035 19.868 110.035-19.868c0-23.591-8.499-45.336-22.782-62.672-20.128-24.455-51.708-40.183-87.253-40.183-43.865 0-81.766 24.008-99.42 58.71-6.798 13.375-10.615 28.358-10.615 44.145z" fill="#ececec"/><path d="m63.487 399.424h34.561 69.152 34.591 160.7c13.359-8.996 9.214-39.736-9.483-39.736h-104.25-41.539-178.532-8.797c-10.944 0-19.89 8.936-19.89 19.868s8.946 19.868 19.89 19.868z" fill="#fb2a39"/><path d="m374.866 172.388h62.801 14.91c5.427 7.357 13.061 13.106 22.872 15.876 11.63 3.277 21.739-1.013 21.739-11.379v-72.948c0-10.366-10.139-14.745-21.739-11.379-12.435 3.604-21.321 11.796-26.689 21.983l-84.867 18.855-26.242 5.808c-8.23 1.847-15.298 7.477-15.298 16.591 0 8.549 6.381 16.591 15.298 16.591h37.215z" fill="#ececec"/><path d="m330.524 364.544c-5.129 13.017-6.59 34.88 11.54 34.88h77.502 77.502c18.13 0 16.669-21.864 11.57-34.88-13.956-35.506-48.577-60.646-89.072-60.646-16.133 0-31.341 3.991-44.7 11.051-18.548 9.83-33.488 25.587-42.285 44.74-.715 1.608-1.431 3.216-2.057 4.855z" fill="#ececec"/><path d="m63.487 399.424c0 5.66.656 11.14 1.938 16.383h36.768c-2.654-4.885-4.145-10.455-4.145-16.383z" fill="#595959"/><path d="m350.414 399.424c0 5.66.686 11.14 1.968 16.383h36.738c-2.624-4.885-4.115-10.455-4.115-16.383z" fill="#595959"/><path d="m389.12 415.807h60.892c2.654-4.885 4.145-10.455 4.145-16.383h-69.152c0 5.928 1.491 11.498 4.115 16.383z" fill="#cecece"/><path d="m461.672 421.824c-2.028 17.515-12.524 33.153-24.661 44.472 29.76-7.715 51.708-34.732 51.708-66.872h-34.561c0 5.928-1.491 11.498-4.145 16.383h4.741c4.89 0 7.544.417 6.918 6.017z" fill="#595959"/><path d="m205.28 254.987v22.638c1.968 1.43 3.906 2.949 5.785 4.557 5.487 4.468 10.467 9.442 14.91 14.834v-75.212h-186.672v18.081l147.31.06c14.761 0 18.667-.924 18.667 15.042z" fill="#fb2a39"/><path d="m433.403 208.698 14.85 99.578c4.413 1.37 8.678 3.068 12.793 5.064 4.324 2.085 8.469 4.468 12.405 7.149l-20.874-148.101h-14.91-62.801v19.51h34.919c18.667.001 20.904-2.412 23.618 16.8z" fill="#fb2a39"/><path d="m176.772 301.902c12.017 16.472 19.025 36.37 19.025 57.787h11.421 41.539c0-23.591-8.499-45.336-22.782-62.672 0-.03-.03-.03-.03-.03-3.847-4.677-8.141-9.055-12.763-13.047-19.592-16.83-45.744-27.106-74.46-27.106-9.125 0-18.011 1.043-26.48 3.008 24.512 5.66 45.803 19.004 60.743 37.174 1.312 1.579 2.595 3.218 3.787 4.886z" fill="#cecece"/><path d="m442.11 329.812c10.258 9.591 18.369 21.447 23.588 34.732 3.131 7.953 4.89 19.213 1.64 26.778-2.058 4.796-6.143 8.102-13.18 8.102h34.561 8.35c18.13 0 16.669-21.864 11.57-34.88-7.067-17.991-19.443-33.302-35.187-44.055-3.936-2.681-8.081-5.064-12.405-7.149-4.115-1.996-8.379-3.694-12.793-5.064-9.065-2.86-18.697-4.379-28.687-4.379-7.366 0-14.552.834-21.47 2.413 16.787 3.843 31.906 12.094 44.013 23.502z" fill="#cecece"/><path d="m478.818 116.478v72.531c10.139 1.638 18.369-2.77 18.369-12.123v-72.948c0-10.366-10.139-14.745-21.739-11.379-8.648 2.532-15.566 7.238-20.785 13.315.775-.298 1.61-.566 2.415-.804 11.602-3.366 21.74 1.012 21.74 11.408z" fill="#cecece"/><path d="m203.7 221.805h22.275 7.515c33.488 0 33.488-43.787 0-43.787h-29.79c29.224 0 32.951 33.361 11.153 41.851-3.191 1.221-6.889 1.936-11.153 1.936z" fill="#838383"/></g><path d="m162.578 324.127h-51.678c-4.301 0-7.787-3.483-7.787-7.779s3.486-7.779 7.787-7.779h51.678c4.301 0 7.787 3.483 7.787 7.779s-3.486 7.779-7.787 7.779z" fill="#595959"/><path clip-rule="evenodd" d="m331.806 83.593h40.287c5.189 0 9.453-4.26 9.453-9.442v-21.209c0-5.213-4.264-9.442-9.453-9.442h-40.287c-5.218 0-9.453 4.23-9.453 9.442v21.208c0 5.184 4.235 9.443 9.453 9.443z" fill="#fe636e" fill-rule="evenodd"/></svg>