<svg id="Layer_1" enable-background="new 0 0 512 512" height="512" viewBox="0 0 512 512" width="512" xmlns="http://www.w3.org/2000/svg"><g clip-rule="evenodd" fill-rule="evenodd"><path d="m68.406 166.221-18.123-13.963-18.093 13.963v31.644l19.029 11.768 17.187-11.768z" fill="#ececec"/><path d="m79.309 132.967-67.141-7.435c-2.865-.322-5.261 2.371-5.261 5.269v30.151c0 2.898 2.368 5.269 5.261 5.269h20.022 36.216 10.903c2.894 0 5.261-2.371 5.261-5.269v-22.716c0-2.898-2.397-4.947-5.261-5.269z" fill="#fe636e"/><path d="m55.72 130.83c2.865.351 5.261 2.517 5.261 5.62v24.062.117c0 3.074-2.368 5.562-5.232 5.591h12.657 10.903c2.894 0 5.261-2.371 5.261-5.269v-22.716c0-2.898-2.397-4.947-5.261-5.269l-67.141-7.435c-.409-.059-.789-.029-1.169.029z" fill="#fb2a39"/><path d="m68.406 197.865h-36.216-9.763c-11.487 0-22.77 8.079-22.419 27.604v100.348c-.029 3.835-.146 12.412 8.711 14.841l37.21 10.275 406.501 6.674h40.22c14.001.41 19.379-5.035 19.35-14.168v-55.062-29.8c0-20.14-12.364-22.862-58.197-31.732l-46.622-9.016c-15.17-2.957-11.897-1.61-32.211-19.232l-49.37-42.709c-14.206-12.295-15.813-10.304-43.523-10.275h-110.343c-8.74-.029-17.743 3.249-25.898 9.426l-50.48 38.23c-7.249 5.503-10.406 4.596-18.298 4.596z" fill="#fe636e"/><path d="m369.679 325.32h-238.107c.702 3.396 1.081 4.801 1.081 10.509s-1.754 15.193-4.911 21.779h246.35c-3.42-6.821-5.32-16.949-5.32-22.657.001-5.738.293-6.499.907-9.631z" fill="#acacac"/><path d="m.008 232.349v42.241l22.39-4.976c11.254-2.488 16.31-1.786 24.349-13.319l8.681-12.441c4.531-6.528-1.754-11.504-5.144-11.504h-50.276z" fill="#a6e7f0"/><path d="m37.188 246.488c-8.038 11.534-12.588 9.18-23.812 11.668l-13.368 2.969v13.465l22.39-4.976c11.254-2.488 16.31-1.786 24.349-13.319l8.681-12.441c4.531-6.528-1.754-11.504-5.144-11.504h-3.478c-.234.556-.555 1.112-.965 1.698z" fill="#6bd9e7"/><path d="m180.298 176.642c-6.489 0-8.301 1.961-13.241 5.503l-24.436 17.622c-4.94 3.571-4.852 7.845-4.852 10.597v7.67c0 .995 1.315 1.844 2.952 1.873l48.697.088c10.844.176 10.844-7.582 10.844-12.236v-25.965c-.088-1.112.117-5.181-6.372-5.181z" fill="#a6e7f0"/><path d="m180.298 219.966 9.12.029c10.844.176 10.844-7.582 10.844-12.236v-25.965c-.088-1.112.117-5.181-6.372-5.181-4.531 0-9.061.029-13.592.029z" fill="#6bd9e7"/><path d="m407.152 284.279c-24.641 0-45.189 17.652-49.662 41.041-.614 3.132-.935 6.323-.935 9.631 0 8.138 1.929 15.837 5.349 22.657 8.301 16.598 25.459 28.014 45.248 28.014 19.818 0 36.976-11.416 45.277-28.014 3.42-6.821 5.32-14.519 5.32-22.657 0-27.986-22.653-50.672-50.597-50.672z" fill="#838383"/><path d="m94.245 285.157c-27.944 0-50.597 22.687-50.597 50.671 0 5.269.818 10.333 2.28 15.105 6.431 20.608 25.635 35.567 48.317 35.567 20.169 0 37.56-11.797 45.686-28.892 3.157-6.586 4.911-13.963 4.911-21.779 0-3.601-.38-7.113-1.082-10.509-4.822-22.95-25.166-40.163-49.515-40.163z" fill="#838383"/><path d="m94.245 318.821c-9.383 0-16.983 7.611-16.983 17.008s7.6 17.008 16.983 17.008 16.983-7.611 16.983-17.008-7.6-17.008-16.983-17.008z" fill="#ececec"/><path d="m407.152 317.943c-9.354 0-16.983 7.611-16.983 17.008 0 9.367 7.629 17.008 16.983 17.008 9.383 0 16.983-7.64 16.983-17.008 0-9.397-7.6-17.008-16.983-17.008z" fill="#ececec"/><path d="m481.191 270.784c-5.934 0-10.815 4.859-10.815 10.831v8.138c0 5.942 4.881 10.831 10.815 10.831h30.809v-29.8z" fill="#a6e7f0"/><path d="m490.34 270.784h21.659v29.8h-21.659z" fill="#6bd9e7"/><path d="m143.761 325.32c-4.823-22.95-25.167-40.162-49.516-40.162-3.332 0-6.606.322-9.763.937 19.876 3.893 35.602 19.437 39.753 39.226.731 3.396 1.082 6.908 1.082 10.509 0 5.737-.935 11.241-2.689 16.364-.643 1.873-1.374 3.659-2.192 5.415-6.781 14.256-20.023 24.853-35.953 27.956 3.157.615 6.431.937 9.763.937 20.169 0 37.56-11.797 45.686-28.892.789-1.639 1.491-3.337 2.105-5.093 1.812-5.211 2.806-10.831 2.806-16.686-.001-3.603-.381-7.116-1.082-10.511z" fill="#595959"/><path d="m456.668 324.441c-4.823-22.95-25.167-40.162-49.516-40.162-3.332 0-6.577.322-9.734.937 19.847 3.893 35.573 19.408 39.724 39.226.731 3.396 1.111 6.908 1.111 10.509 0 5.708-.965 11.212-2.718 16.364-.614 1.844-1.374 3.659-2.192 5.415-6.781 14.256-20.023 24.823-35.924 27.926 3.157.644 6.401.966 9.734.966 20.169 0 37.56-11.826 45.716-28.892.789-1.669 1.491-3.366 2.075-5.094 1.842-5.24 2.806-10.86 2.806-16.686-.001-3.6-.352-7.113-1.082-10.509z" fill="#595959"/><path d="m235.163 176.935c-6.518 0-6.314 4.04-6.401 5.152v29.771c0 4.625-.702 8.548 7.074 8.401h99.616c1.637-.029 2.952-.878 2.952-1.873v-6.411c0-1.405-.438-3.63-2.689-5.298l-32.767-24.179c-4.94-3.542-6.752-5.562-13.241-5.562h-54.544z" fill="#a6e7f0"/><path d="m302.947 182.497c-4.94-3.542-6.752-5.562-13.241-5.562h-26.95c6.489 0 8.301 2.02 13.241 5.562l32.767 24.179c2.251 1.669 2.689 3.893 2.689 5.298v6.411c0 .995-1.315 1.844-2.952 1.873h26.95c1.637-.029 2.952-.878 2.952-1.873v-6.411c0-1.405-.438-3.63-2.689-5.298z" fill="#6bd9e7"/><path d="m8.718 314.489c-8.038-2.225-8.681-9.484-8.711-13.67v24.999c-.029 3.835-.146 12.412 8.711 14.841l37.21 10.275c-1.462-4.771-2.28-9.836-2.28-15.105 0-3.893.438-7.699 1.286-11.329z" fill="#fb2a39"/><path d="m55.75 166.221h-5.467v31.644h18.123v-31.644z" fill="#cecece"/><path d="m512 258.577c0-17.008-8.798-21.574-39.051-27.926 13.066 10.919 17.392 24.443 17.392 36.386v3.747h21.659z" fill="#fb2a39"/><path d="m490.34 300.584v22.774 34.249h2.309c14.001.41 19.379-5.035 19.35-14.168v-12.002-30.854h-21.659z" fill="#fb2a39"/></g><path d="m262.464 266.06h-29.844c-4.305 0-7.795-3.494-7.795-7.805s3.49-7.805 7.795-7.805h29.844c4.305 0 7.795 3.494 7.795 7.805s-3.49 7.805-7.795 7.805z" fill="#cecece"/></svg>