<svg id="Layer_1" enable-background="new 0 0 512 512" height="512" viewBox="0 0 512 512" width="512" xmlns="http://www.w3.org/2000/svg"><path d="m303.877 127.524c-4.301 0-7.787-3.488-7.787-7.791v-15.736c0-4.365-3.568-7.916-7.954-7.916h-199.683c-4.385 0-7.953 3.551-7.953 7.916v15.736c0 4.303-3.486 7.791-7.787 7.791s-7.787-3.488-7.787-7.791v-15.736c0-12.956 10.553-23.497 23.526-23.497h199.684c12.973 0 23.527 10.541 23.527 23.497v15.736c.001 4.303-3.485 7.791-7.786 7.791z" fill="#acacac"/><path clip-rule="evenodd" d="m13.871 179.523c-7.651 0-13.871 6.248-13.871 13.868v90.795c0 7.62 6.22 13.867 13.871 13.867h24.909l19.098-52.929-18.66-65.6h-25.347z" fill="#838383" fill-rule="evenodd"/><path clip-rule="evenodd" d="m303.877 119.733h-231.164-9.286c-13.199-.029-23.975 10.802-24.033 24.027l-.175 35.763-.438 96.692v21.837 50.39l223.425 18.801 231.047-18.684c0-61.425 0-85.977 0-103.144 0-13.225-10.834-24.027-24.033-24.027h-62.784c-15.74 0-18.923 1.109-25.727-13.721l-27.596-60.082c-5.49-11.999-14.835-27.851-42.226-27.851h-7.01z" fill="#ffd659" fill-rule="evenodd"/><path d="m253.27 272.854h-25.902c-4.301 0-7.787-3.488-7.787-7.791s3.486-7.791 7.787-7.791h25.902c4.301 0 7.787 3.488 7.787 7.791s-3.487 7.791-7.787 7.791z" fill="#acacac"/><g clip-rule="evenodd" fill-rule="evenodd"><path d="m81.269 348.442h-42.489-7.622c-10.308 0-18.748 8.437-18.748 18.743s8.439 18.743 18.748 18.743h46.519c-1.022-4.321-1.548-6.861-1.548-13.459.001-6.598 1.811-16.699 5.14-24.027z" fill="#acacac"/><path d="m271.813 348.442h-40.533-61.967c3.3 7.328 5.11 17.429 5.11 24.027s-.526 9.138-1.548 13.459h162.451c-1.022-4.321-1.548-6.861-1.548-13.459s1.84-16.699 5.14-24.027z" fill="#acacac"/><path d="m493.252 348.559-66.289-.117c3.3 7.328 5.14 17.429 5.14 24.027s-.555 9.138-1.577 13.459l62.726.146c10.308 0 18.748-8.437 18.748-18.772 0-10.306-8.439-18.714-18.748-18.743z" fill="#acacac"/><path d="m125.277 313.438c-24.209 0-45.059 14.393-54.316 35.004-3.3 7.328-5.14 15.473-5.14 24.027 0 4.642.526 9.138 1.548 13.459 6.132 26.129 29.728 45.572 57.908 45.572s51.775-19.443 57.908-45.572c1.022-4.321 1.548-8.817 1.548-13.459 0-8.554-1.84-16.699-5.14-24.027-9.257-20.611-30.108-35.004-54.316-35.004z" fill="#838383"/><path d="m328.611 348.442c-3.3 7.328-5.14 15.473-5.14 24.027 0 4.642.526 9.138 1.548 13.459 6.132 26.129 29.757 45.572 57.908 45.572 28.18 0 51.775-19.443 57.908-45.572 1.022-4.321 1.548-8.817 1.548-13.459 0-8.554-1.811-16.699-5.11-24.027-9.286-20.611-30.107-35.004-54.345-35.004-24.21 0-45.06 14.393-54.317 35.004z" fill="#838383"/><path d="m179.593 348.442c-9.257-20.611-30.107-35.004-54.316-35.004-4.205 0-8.293.438-12.236 1.255 19.799 3.387 36.24 16.466 44.212 34.157 3.3 7.328 5.11 15.473 5.11 24.027 0 4.642-.526 9.138-1.548 13.459-5.227 22.217-23.099 39.617-45.643 44.317 3.271.555 6.658.847 10.104.847 28.18 0 51.775-19.443 57.908-45.572 1.022-4.321 1.548-8.817 1.548-13.459 0-1.781-.088-3.533-.234-5.284-.583-6.627-2.277-12.933-4.905-18.743z" fill="#595959"/><path d="m437.272 348.442c-9.286-20.611-30.107-35.004-54.345-35.004-4.205 0-8.293.438-12.236 1.255 19.799 3.387 36.269 16.466 44.212 34.157 3.3 7.328 5.14 15.473 5.14 24.027 0 4.642-.555 9.138-1.577 13.459-5.227 22.217-23.07 39.617-45.643 44.317 3.271.555 6.658.847 10.104.847 28.18 0 51.775-19.443 57.908-45.543 0 0 0 0 0-.029 1.022-4.321 1.548-8.817 1.548-13.459 0-1.781-.058-3.533-.234-5.284-.584-6.598-2.278-12.904-4.877-18.714z" fill="#595959"/><path d="m469.219 221.388h-28.122c13.229 0 24.033 10.802 24.033 24.027v12.378h28.122c0-4.671 0-8.7 0-12.378 0-13.225-10.834-24.027-24.033-24.027z" fill="#ffbf00"/><path d="m465.131 295.834v52.667l28.122.058c0-18.13 0-33.077 0-45.543z" fill="#ffbf00"/><path d="m22.953 179.523v118.529h15.944v-21.837l.321-96.692z" fill="#595959"/><path d="m125.277 349.143c-12.995 0-23.508 10.452-23.508 23.326 0 12.904 10.513 23.356 23.508 23.356s23.508-10.452 23.508-23.356c0-12.875-10.513-23.326-23.508-23.326z" fill="#ececec"/><path d="m382.927 349.143c-12.966 0-23.508 10.452-23.508 23.326 0 12.904 10.542 23.356 23.508 23.356 12.995 0 23.508-10.452 23.508-23.356-.001-12.875-10.513-23.326-23.508-23.326z" fill="#ececec"/><path d="m493.252 257.793h-51.25c-3.475 0-8.381 3.27-5.256 9.401l9.199 18.013c1.781 3.474 2.92 6.481 6.308 7.357l41 10.452v-45.223z" fill="#a6e7f0"/><path d="m493.252 257.793h-28.122v38.04l28.122 7.182z" fill="#6bd9e7"/><path d="m299.935 165.656h-61.091c-7.768 0-14.105 7.065-14.105 15.619v32.581c0 8.525 6.337 15.531 14.105 15.531l82.934-.029c13.141 0 19.945-8.671 13.783-22.772l-14.718-29.749c-4.964-11.356-7.154-11.181-20.908-11.181z" fill="#a6e7f0"/><path d="m171.562 165.656h-77.21c-7.242 0-13.17 5.956-13.17 13.196v37.369c0 7.24 5.928 13.167 13.17 13.167h77.21c7.242 0 13.17-5.926 13.17-13.167v-37.369c0-7.24-5.928-13.196-13.17-13.196z" fill="#a6e7f0"/><path d="m171.562 165.656h-30.224c7.242 0 13.17 5.956 13.17 13.196v37.369c0 7.24-5.928 13.167-13.17 13.167h30.224c7.242 0 13.17-5.926 13.17-13.167v-37.369c0-7.24-5.928-13.196-13.17-13.196z" fill="#6bd9e7"/><path d="m320.843 176.837c-4.964-11.357-7.155-11.181-20.909-11.181h-23.829c12.09.029 14.309.38 19.011 11.181l14.747 29.749c6.132 14.101-.642 22.772-13.813 22.772l-57.645.029h.438l82.934-.029c13.141 0 19.945-8.671 13.783-22.772z" fill="#6bd9e7"/></g></svg>