<svg id="Layer_1" enable-background="new 0 0 512 512" height="512" viewBox="0 0 512 512" width="512" xmlns="http://www.w3.org/2000/svg"><g clip-rule="evenodd" fill-rule="evenodd"><path d="m41.526 388.489c0 38.952 31.539 70.511 70.437 70.511 38.927 0 70.467-31.559 70.467-70.511l-67.459-19.812z" fill="#838383"/><path d="m417.718 112.202-34.284-22.003-34.314 22.003v72.264l34.314 18.877 34.284-18.877z" fill="#ececec"/><path d="m471.276 216.318h-17.084l-25.523 45.264 25.523 44.416h17.084c9.403 0 17.113-7.685 17.113-17.124v-55.462c0-9.409-7.71-17.094-17.113-17.094z" fill="#fe636e"/><path d="m283.472 143.557h-14.397c-6.688 0-12.178 5.464-12.178 12.156v28.754l19.361 9.672 19.362-9.672v-28.754c.001-6.692-5.46-12.156-12.148-12.156z" fill="#ffd659"/><path d="m295.621 184.466h-38.723-60.713l-23.567 96.635 23.567 57.595 129.632 9.205 128.376-9.205v-32.699-89.68-17.591c0-7.831-6.425-14.26-14.28-14.26h-22.194-68.599z" fill="#838383"/><path d="m432.816 68.166h-98.793c-8.06 0-14.66 6.604-14.66 14.669v14.698c0 8.065 6.6 14.669 14.66 14.669h15.098 68.598 15.098c8.06 0 14.66-6.604 14.66-14.669v-14.698c-.001-8.065-6.601-14.669-14.661-14.669z" fill="#fe636e"/><path d="m196.185 272.568-90.879-18.555-71.518 18.555v66.128l72.131 28.988 90.266-28.988z" fill="#fe636e"/><path d="m147.212 388.489-33.7-12.536-36.766 12.536c0 19.491 15.77 35.27 35.219 35.27 19.477 0 35.247-15.779 35.247-35.27z" fill="#ececec"/><path d="m248.663 388.489c0 38.952 31.539 70.511 70.467 70.511 38.898 0 70.437-31.559 70.437-70.511l-67.926-20.806z" fill="#838383"/><path d="m454.163 338.696h.029zm.029-139.97c0-7.831-6.425-14.26-14.28-14.26h-22.194c7.826 0 14.251 6.429 14.251 14.26v17.591 89.68 32.699h22.194.029v-32.699-89.68z" fill="#595959"/><path d="m488.389 233.412c0-9.409-7.71-17.094-17.113-17.094h-13.579c9.433 0 15.113 7.685 15.113 17.094v55.462c0 9.438-5.68 17.124-15.113 17.124h13.579c9.403 0 17.113-7.685 17.113-17.124z" fill="#fb2a39"/><path d="m417.718 112.202h-36.883-31.715v16.656h12.44 24.297c15.594 0 12.586 11.309 12.586 27.468v28.14h19.274v-72.264z" fill="#cecece"/><path d="m447.476 82.835c0-8.065-6.6-14.669-14.66-14.669h-25.903c8.06 0 14.66 6.604 14.66 14.669v14.698c0 8.065-6.6 14.669-14.66 14.669h10.805 15.098c8.06 0 14.66-6.604 14.66-14.669z" fill="#fb2a39"/><path d="m174.779 272.568h21.406v66.128h-21.406z" fill="#fb2a39"/><path d="m295.621 155.713c0-6.692-5.461-12.156-12.148-12.156h-14.397c6.687 0 12.148 5.464 12.148 12.156v28.754h14.397z" fill="#ffbf00"/><path d="m354.348 388.489-37.234-13.12-33.233 13.12c0 19.491 15.77 35.27 35.248 35.27 19.449 0 35.219-15.779 35.219-35.27z" fill="#ececec"/><path d="m196.185 98.79-81.213-22.91-81.184 22.91v173.778h162.397v-88.102z" fill="#ececec"/><path d="m196.185 98.79h-162.397v17.708h110.036c18.31 0 30.955-2.425 30.955 18.234v77.29 46.374 9.789 4.383h21.406v-88.102z" fill="#cecece"/><path d="m151.621 127.427h-74.876c-5.49 0-9.987 4.5-9.987 9.994v69.663c0 5.494 4.497 9.994 9.987 9.994h74.876c5.49 0 9.987-4.5 9.987-9.994v-69.664c.001-5.493-4.497-9.993-9.987-9.993z" fill="#a6e7f0"/><path d="m151.621 127.427h-74.876c-5.49 0-9.987 4.5-9.987 9.994v6.546h66.845c5.49 0 9.987 4.5 9.987 9.994v63.118h8.031c5.49 0 9.987-4.5 9.987-9.994v-69.665c.001-5.493-4.497-9.993-9.987-9.993z" fill="#6bd9e7"/><path d="m197.733 53h-165.522c-12.587 0-22.895 10.286-22.895 22.88 0 12.624 10.309 22.909 22.895 22.909h1.577 162.397 1.548c12.586 0 22.895-10.286 22.895-22.909 0-12.594-10.309-22.88-22.895-22.88z" fill="#fe636e"/><path d="m220.628 75.88c0-12.594-10.309-22.88-22.895-22.88h-35.949c12.616 0 22.895 10.286 22.895 22.88 0 12.624-10.279 22.909-22.895 22.909h34.401 1.548c12.586.001 22.895-10.285 22.895-22.909z" fill="#fb2a39"/><path d="m454.192 338.696h-258.007-74.759-87.638-24.151c-5.315 0-9.637 4.354-9.637 9.643v30.507c0 5.318 4.351 9.643 9.637 9.643h31.89 35.219 70.467 35.219 66.232 35.219 70.467 35.219 17.025c14.28 0 11.74-.497 18.456 11.689l6.133 10.52c6.629 12.039 14.193 10.344 28.268 12.594l39.307 6.283c12.557 2.016 17.814 1.753 8.527-16.51l-32.006-62.913c-3.857-7.599-8.997-11.456-21.087-11.456z" fill="#ececec"/><path d="m454.192 338.696h-.029zm21.085 11.455c-3.855-7.598-8.994-11.455-21.084-11.455h-.029-22.019c3.417 0 6.279.321 8.673.964 6.103 1.578 9.491 5.085 12.265 10.49l32.006 62.913c4.088 8.065 5.373 12.624 4.41 15.02l9.257 1.49c12.557 2.016 17.814 1.753 8.527-16.51z" fill="#cecece"/><path d="m76.745 388.489h-35.219c0 6.283.818 12.331 2.336 18.117h37.876c-3.182-5.289-4.993-11.484-4.993-18.117z" fill="#595959"/><path d="m147.212 388.489h-70.467c0 6.633 1.811 12.828 4.994 18.117h60.479c3.154-5.289 4.994-11.484 4.994-18.117z" fill="#cecece"/><path d="m182.43 388.489h-35.219c0 6.633-1.84 12.828-4.994 18.117h8.177c4.818 0 9.754-.643 9.433 4.559-.964 15.195-6.746 29.104-15.857 40.179 22.837-11.688 38.46-35.445 38.46-62.855z" fill="#595959"/><path d="m283.881 388.489h-35.219c0 6.283.818 12.331 2.336 18.117h37.876c-3.153-5.289-4.993-11.484-4.993-18.117z" fill="#595959"/><path d="m354.348 388.489h-70.467c0 6.633 1.84 12.828 4.994 18.117h60.479c3.183-5.289 4.994-11.484 4.994-18.117z" fill="#cecece"/><path d="m389.566 388.489h-35.219c0 6.633-1.811 12.828-4.994 18.117h8.177c4.819 0 9.754-.643 9.433 4.559-.964 15.195-6.746 29.104-15.857 40.179 22.837-11.688 38.46-35.445 38.46-62.855z" fill="#595959"/></g><path d="m467.048 404.068c-2.858 0-5.61-1.577-6.979-4.306l-14.368-28.636c-1.933-3.851-.378-8.542 3.473-10.475 3.852-1.933 8.539-.377 10.472 3.475l14.368 28.636c1.933 3.851.378 8.542-3.473 10.475-1.122.563-2.317.831-3.493.831z" fill="#838383"/><path d="m389.8 242.443h-64.626c-4.309 0-7.802-3.494-7.802-7.804s3.493-7.804 7.802-7.804h64.626c4.309 0 7.802 3.494 7.802 7.804s-3.493 7.804-7.802 7.804z" fill="#444"/><path d="m389.8 285.194h-64.626c-4.309 0-7.802-3.494-7.802-7.804s3.493-7.804 7.802-7.804h64.626c4.309 0 7.802 3.494 7.802 7.804s-3.493 7.804-7.802 7.804z" fill="#444"/></svg>